# xmcd CD database file
#
# Track frame offsets:
#	150
#	15571
#	32048
#	48114
#	63542
#	79514
#	94588
#	110121
#	126656
#	150798
#	179548
#	193745
#	209115
#	223388
#	239088
#	254168
#	268028
#	282545
#
# Disc length: 3974 seconds
#
# Revision: 1
# Processed by: cddbd v1.5.2PL0 Copyright (c) Steve Scherf et al.
# Submitted via: CDex 1.70beta2
#
DISCID=1d0f8412
DTITLE=Various Artist - Jazz Roads CD182 - Swing - Lester Young Vol.10 (1952-53)
DYEAR=2006
DGENRE=Jazz
TTITLE0=Lester Young With The Oscar Peterson Trio - These Foolish Things
TTITLE1=Lester Young With The Oscar Peterson Trio - I Can't Get Started
TTITLE2=Lester Young With The Oscar Peterson Trio - Stardust
TTITLE3=Lester Young With The Oscar Peterson Trio - On The Sunny Side Of The Street
TTITLE4=Lester Young With The Oscar Peterson Trio - Almost Like Being In Love
TTITLE5=Lester Young With The Oscar Peterson Trio - I Can't Give You Anything But Love
TTITLE6=Lester Young With The Oscar Peterson Trio - There'll Never Be Another You
TTITLE7=Lester Young With The Oscar Peterson Trio - I'm Confessin'
TTITLE8=Metronome All Stars - How High The Moon  Part 1 and 2
TTITLE9=Metronome All Stars - St. Louis Blues  Part 1 and 2
TTITLE10=Lester Young Quintet - Willow Weep For Me
TTITLE11=Lester Young Quintet - This Can't Be Love
TTITLE12=Lester Young Quintet - Can't We Be Friends
TTITLE13=Lester Young Quintet - Tenderly
TTITLE14=Lester Young Quintet - New D.B. Blues
TTITLE15=Lester Young Quintet - Jumpin' At The Woodside
TTITLE16=Lester Young Quintet - I Can't Believe That You're In Love With Me
TTITLE17=Lester Young Quintet - Oh! Lady Be Good
EXTD=YEAR: 2006
EXTT0=
EXTT1=
EXTT2=
EXTT3=
EXTT4=
EXTT5=
EXTT6=
EXTT7=
EXTT8=
EXTT9=
EXTT10=
EXTT11=
EXTT12=
EXTT13=
EXTT14=
EXTT15=
EXTT16=
EXTT17=
PLAYORDER=
